<svg xmlns="http://www.w3.org/2000/svg" width="36.001" height="18.008" viewBox="0 0 36.001 18.008"><defs><style>.a,.b{fill:#848686;}.a{fill-rule:evenodd;}</style></defs><g transform="translate(0 -8.996)"><path class="a" d="M0,18a9,9,0,0,1,16.8-4.5H31.5a1.125,1.125,0,0,1,.8.328L35.671,17.2a1.125,1.125,0,0,1,0,1.593L32.3,22.171a1.125,1.125,0,0,1-1.593,0L29.25,20.716,27.8,22.172a1.125,1.125,0,0,1-1.593,0L24.75,20.716,23.3,22.172a1.125,1.125,0,0,1-1.593,0L20.25,20.716,18.8,22.172a1.125,1.125,0,0,1-.8.328H16.8A9,9,0,0,1,0,18Zm9-6.75a6.75,6.75,0,1,0,6.1,9.641,1.125,1.125,0,0,1,1.015-.641h1.417l1.919-1.921a1.125,1.125,0,0,1,1.593,0L22.5,19.785l1.454-1.456a1.125,1.125,0,0,1,1.593,0L27,19.785l1.454-1.456a1.125,1.125,0,0,1,1.593,0L31.5,19.785,33.286,18l-2.25-2.25H16.118A1.125,1.125,0,0,1,15.1,15.11,6.75,6.75,0,0,0,9,11.25Z"/><path class="b" d="M9,18a2.25,2.25,0,1,1-2.25-2.25A2.25,2.25,0,0,1,9,18Z"/></g></svg>