<svg xmlns="http://www.w3.org/2000/svg" width="281.087" height="95.916" viewBox="0 0 281.087 95.916"><defs><style>.a{fill:#fff;}</style></defs><path class="a" d="M256.445,42.853c4.919-2.618,8.089-7.212,8.089-14.1,0-11.579-8.749-18.254-19.785-18.254H217V76.076h30.264c10.929,0,19.456-6.34,19.456-17.927C266.72,50.178,262.568,45.259,256.445,42.853ZM231.414,23.288H243a7,7,0,0,1,7.1,7,7.16,7.16,0,0,1-7.1,7.1H231.414ZM245.186,63.3H231.414v-14.1h13.812a7.089,7.089,0,0,1,7.068,7.1A6.928,6.928,0,0,1,245.186,63.3Z" transform="translate(-160.194 -7.751)"/><path class="a" d="M748.43,54.98c0,12.241-10.385,19.456-22.628,19.456A27.917,27.917,0,0,1,700.88,59.791l11.914-7.429a14.183,14.183,0,0,0,13.118,8.526c5.029,0,8.089-2.406,8.089-6.021,0-8-14.7-7.822-23.613-14.524-3.88-2.9-6.665-7.134-6.665-13.9,0-13.115,10.6-19.346,20.987-19.346a26.846,26.846,0,0,1,20.223,9.306l-9.62,9.181c-3.28-3.607-6.995-5.686-10.712-5.686-3.5,0-6.34,1.749-6.34,5.466,0,8.065,15.183,7.382,24.016,14.976C745.885,43.461,748.43,47.943,748.43,54.98Z" transform="translate(-517.403 -5.241)"/><path class="a" d="M939.7,54.98c0,12.241-10.382,19.456-22.626,19.456A27.888,27.888,0,0,1,892.16,59.791l11.9-7.429a14.183,14.183,0,0,0,13.118,8.526c5.026,0,8.089-2.406,8.089-6.021,0-8-14.7-7.822-23.615-14.524-3.88-2.9-6.657-7.134-6.657-13.9C895,13.33,905.6,7.1,915.985,7.1a26.846,26.846,0,0,1,20.222,9.291l-9.618,9.181c-3.277-3.592-7.005-5.67-10.72-5.67-3.5,0-6.34,1.749-6.34,5.466,0,8.065,15.183,7.382,24.013,14.976C937.145,43.461,939.7,47.943,939.7,54.98Z" transform="translate(-658.61 -5.241)"/><path class="a" d="M458.835,0C438.3,0,424.22,14.809,424.22,33.783v.785c.361,18.686,13.788,33.246,33.411,33.819.4.013.785.018,1.2.018s.8,0,1.2-.018c19.634-.568,33.05-15.134,33.411-33.819v-.785C493.451,14.809,479.382,0,458.835,0Zm0,53.589h-.06c-10.186-.031-17.461-8.147-17.8-19.029v-.785c0-10.83,7.4-18.974,17.861-18.974s17.853,8.144,17.853,18.969v.785C476.356,45.461,469.055,53.589,458.835,53.589Z" transform="translate(-313.167)"/><path class="a" d="M590.873,132c-.361,18.686-13.783,33.246-33.416,33.819H556.2V151.029h.057c10.209,0,17.521-8.115,17.851-19.029Z" transform="translate(-410.598 -97.445)"/><path class="a" d="M458.812,151.034v14.791h-1.173c-19.634-.579-33.05-15.134-33.419-33.825h16.754c.33,10.882,7.592,19,17.8,19.029Z" transform="translate(-313.167 -97.445)"/><path class="a" d="M244.749,10.5H217V42.853h39.445c4.919-2.618,8.089-7.212,8.089-14.1C264.534,17.175,255.785,10.5,244.749,10.5Zm-1.736,26.89h-11.6v-14.1H243a7,7,0,0,1,7.1,7,7.16,7.16,0,0,1-7.1,7.1Z" transform="translate(-160.194 -7.751)"/><path class="a" d="M726.277,25.367c0,8.065,15.183,7.382,24.016,14.976h-31.9c-3.869-2.9-6.654-7.134-6.654-13.9,0-13.115,10.6-19.346,20.987-19.346a26.846,26.846,0,0,1,20.223,9.306l-9.62,9.181c-3.28-3.607-6.995-5.686-10.712-5.686C729.128,19.9,726.277,21.65,726.277,25.367Z" transform="translate(-525.42 -5.241)"/><path class="a" d="M941.545,40.344H909.657c-3.88-2.9-6.657-7.134-6.657-13.9C903,13.33,913.6,7.1,923.987,7.1a26.845,26.845,0,0,1,20.222,9.291l-9.618,9.181c-3.277-3.592-7.005-5.67-10.72-5.67-3.5,0-6.34,1.749-6.34,5.466C917.531,33.433,932.723,32.749,941.545,40.344Z" transform="translate(-666.612 -5.241)"/><path class="a" d="M23.838,81.12C9.686,81.12,0,91.319,0,104.387v.539c.262,12.869,9.495,22.9,23.008,23.3h1.647c13.521-.393,22.759-10.421,23.008-23.3v-.539C47.673,91.319,37.984,81.12,23.838,81.12Zm0,36.911H23.8c-7.016-.031-12.016-5.61-12.259-13.1v-.539c0-7.458,5.1-13.065,12.3-13.065s12.3,5.607,12.3,13.06v.542c-.243,7.5-5.27,13.089-12.3,13.089Z" transform="translate(0 -59.884)"/><path class="a" d="M114.772,172c-.262,12.867-9.495,22.893-23.008,23.3H90.9V185.115h.039c7.029,0,12.065-5.589,12.3-13.1Z" transform="translate(-67.104 -126.974)"/><path class="a" d="M23.822,185.113V195.3h-.809C9.492,194.9.262,184.877,0,172H11.537c.228,7.495,5.236,13.089,12.259,13.1Z" transform="translate(0 -126.974)"/><path class="a" d="M3.82,298.965a7.086,7.086,0,1,1,7.089,7.068h0a7.089,7.089,0,0,1-7.089-7.068Zm12.7,0a5.615,5.615,0,1,0-5.618,5.6h0a5.581,5.581,0,0,0,5.615-5.542h0Z" transform="translate(-2.82 -215.457)"/><path class="a" d="M75.813,313.018v5.864H74.386v-5.864a2.1,2.1,0,1,0-4.209,0v5.864H68.75v-9.209h1.427v.751a3.2,3.2,0,0,1,2.241-.914A3.505,3.505,0,0,1,75.813,313.018Z" transform="translate(-50.753 -228.486)"/><path class="a" d="M108.14,280.64h1.429v16.929H108.14Z" transform="translate(-79.831 -207.174)"/><path class="a" d="M126,296.952a1,1,0,1,1,1.047.966h-.026a.982.982,0,0,1-1.01-.955h0Zm.288,2.683h1.435v9.2H126.3Z" transform="translate(-93.014 -218.449)"/><path class="a" d="M153.068,313v5.864h-1.429V313a2.1,2.1,0,1,0-4.209,0v5.864H146V309.65h1.427v.751a3.2,3.2,0,0,1,2.23-.921A3.526,3.526,0,0,1,153.068,313Z" transform="translate(-107.78 -228.464)"/><path class="a" d="M192.32,314.451H184.2a3.372,3.372,0,0,0,6.442,1.152h1.518a4.814,4.814,0,1,1,.186-1.45Zm-7.935-1.288h6.325a3.3,3.3,0,0,0-3.141-2.278A3.353,3.353,0,0,0,184.385,313.163Z" transform="translate(-134.891 -228.449)"/><path class="a" d="M259.942,302.758a3.617,3.617,0,0,1-3.775,3.634h-5.5v-13.8H255.7a3.665,3.665,0,0,1,3.817,3.681,3.317,3.317,0,0,1-2.037,3.126,3.429,3.429,0,0,1,2.463,3.361Zm-4.419-8.7h-3.4v4.712h3.4a2.435,2.435,0,0,0,2.508-2.356v-.039A2.376,2.376,0,0,0,255.523,294.061Zm2.953,8.534a2.427,2.427,0,0,0-2.461-2.393h-3.89v4.712h3.867a2.368,2.368,0,0,0,2.479-2.325Z" transform="translate(-185.049 -215.996)"/><path class="a" d="M295.49,316.036V310.13h1.4v5.725a2.056,2.056,0,1,0,4.1,0V310.13h1.4v5.906a3.451,3.451,0,1,1-6.9,0Z" transform="translate(-218.136 -228.944)"/><path class="a" d="M329.93,317l1.382-.552a1.8,1.8,0,0,0,1.832,1.149c.867,0,1.516-.461,1.516-1.264,0-.738-.6-1.047-1.7-1.476-1.634-.62-2.6-1.359-2.6-2.806a2.564,2.564,0,0,1,2.668-2.618,3.01,3.01,0,0,1,2.691,1.521l-1.23.644a1.5,1.5,0,0,0-1.382-.738c-.759,0-1.288.367-1.288,1.149s.576,1.047,1.7,1.542c1.2.492,2.579,1.126,2.579,2.783A2.755,2.755,0,0,1,333.145,319,3.351,3.351,0,0,1,329.93,317Z" transform="translate(-243.561 -228.427)"/><path class="a" d="M362.1,296.952a1,1,0,1,1,1.047.966h-.026A1,1,0,0,1,362.1,296.952Zm.3,2.683h1.424v9.2H362.4Z" transform="translate(-267.307 -218.449)"/><path class="a" d="M389.2,313v5.864h-1.424V313a2.106,2.106,0,1,0-4.212,0v5.864H382.14V309.65h1.424v.751a3.215,3.215,0,0,1,2.233-.921A3.519,3.519,0,0,1,389.2,313Z" transform="translate(-282.103 -228.464)"/><path class="a" d="M428.4,314.45h-8.115a3.372,3.372,0,0,0,6.442,1.152h1.516a4.822,4.822,0,1,1,.183-1.45Zm-7.94-1.288h6.33a3.314,3.314,0,0,0-3.155-2.278,3.353,3.353,0,0,0-3.175,2.277Z" transform="translate(-309.155 -228.447)"/><path class="a" d="M462.11,317l1.38-.552a1.8,1.8,0,0,0,1.817,1.149c.851,0,1.521-.461,1.521-1.264,0-.738-.6-1.047-1.7-1.476-1.634-.62-2.6-1.359-2.6-2.806a2.564,2.564,0,0,1,2.668-2.618,3.015,3.015,0,0,1,2.694,1.521l-1.23.644a1.5,1.5,0,0,0-1.382-.738c-.757,0-1.288.367-1.288,1.149s.576,1.06,1.709,1.552c1.2.492,2.576,1.128,2.576,2.785a2.755,2.755,0,0,1-2.953,2.668A3.374,3.374,0,0,1,462.11,317Z" transform="translate(-341.139 -228.427)"/><path class="a" d="M491.19,317.02l1.387-.542a1.793,1.793,0,0,0,1.817,1.149c.853,0,1.518-.461,1.518-1.264,0-.741-.6-1.047-1.7-1.479-1.634-.62-2.6-1.359-2.6-2.806a2.566,2.566,0,0,1,2.67-2.618,3.009,3.009,0,0,1,2.691,1.518l-1.243.647a1.469,1.469,0,0,0-1.377-.738c-.762,0-1.291.367-1.291,1.149s.576,1.047,1.7,1.539c1.2.492,2.576,1.128,2.576,2.785a2.757,2.757,0,0,1-2.953,2.668A3.358,3.358,0,0,1,491.19,317.02Z" transform="translate(-362.606 -228.449)"/><path class="a" d="M542.87,298.965a7.086,7.086,0,1,1,7.1,7.068h0A7.089,7.089,0,0,1,542.87,298.965Zm12.7,0a5.615,5.615,0,1,0-5.618,5.613h0a5.581,5.581,0,0,0,5.615-5.542h0v-.071Z" transform="translate(-400.757 -215.457)"/><path class="a" d="M614.87,313v5.864h-1.424V313a2.1,2.1,0,1,0-4.209,0v5.864H607.81V309.65h1.427v.751a3.2,3.2,0,0,1,2.23-.921A3.519,3.519,0,0,1,614.87,313Z" transform="translate(-448.697 -228.464)"/><path class="a" d="M654.079,314.45h-8.115a3.372,3.372,0,0,0,6.442,1.152h1.518a4.822,4.822,0,1,1,.183-1.45Zm-7.937-1.288h6.317a3.3,3.3,0,0,0-3.141-2.278,3.353,3.353,0,0,0-3.175,2.277Z" transform="translate(-475.756 -228.447)"/><path class="a" d="M688.39,324.4h6.442v1.382H688.39Z" transform="translate(-508.183 -239.478)"/><path class="a" d="M719.16,303.246l1.332-.785a3.257,3.257,0,0,0,3.173,2.118c1.571,0,2.762-.827,2.762-2.3,0-3.424-6.717-2.322-6.717-6.762a3.6,3.6,0,0,1,3.843-3.634,4.712,4.712,0,0,1,3.694,1.723l-1.149.966a2.939,2.939,0,0,0-2.484-1.23c-1.288,0-2.416.667-2.416,2.05,0,3.288,6.717,2.139,6.717,6.832,0,2.414-1.909,3.817-4.254,3.817A4.708,4.708,0,0,1,719.16,303.246Z" transform="translate(-530.898 -215.471)"/><path class="a" d="M759.953,300.262v5.22a1.361,1.361,0,0,0,1.309,1.4h1.128v1.094a2.655,2.655,0,0,1-3.877-2.3v-5.416H757v-1.39h1.539V294.88h1.429v3.992h2.461v1.38Z" transform="translate(-558.832 -217.686)"/><path class="a" d="M784.54,314.231a4.783,4.783,0,1,0,0-.005Zm8.141,0a3.361,3.361,0,1,0-3.359,3.359h0a3.361,3.361,0,0,0,3.356-3.359Z" transform="translate(-579.163 -228.435)"/><path class="a" d="M840.989,314.21a4.78,4.78,0,0,1-8.154,3.4v6.717H831.41V309.6h1.424v1.2a4.78,4.78,0,0,1,8.144,3.4Zm-1.427,0a3.361,3.361,0,1,0-3.359,3.359h0a3.34,3.34,0,0,0,3.356-3.327h0v-.031Z" transform="translate(-613.763 -228.415)"/><path class="a" d="M875.49,324.4h6.443v1.382H875.49Z" transform="translate(-646.304 -239.478)"/><path class="a" d="M906.25,303.246l1.333-.785a3.262,3.262,0,0,0,3.175,2.118c1.571,0,2.759-.827,2.759-2.3,0-3.424-6.717-2.322-6.717-6.762a3.6,3.6,0,0,1,3.843-3.634,4.713,4.713,0,0,1,3.694,1.723l-1.149.966a2.94,2.94,0,0,0-2.484-1.23c-1.291,0-2.419.667-2.419,2.05,0,3.288,6.717,2.139,6.717,6.832,0,2.414-1.906,3.817-4.254,3.817A4.72,4.72,0,0,1,906.25,303.246Z" transform="translate(-669.011 -215.471)"/><path class="a" d="M955.555,291.682v5.887h-1.4v-5.887a2.06,2.06,0,1,0-4.118-.141,1.242,1.242,0,0,0,0,.141v5.887H948.61V280.64h1.424v8.209a3.519,3.519,0,0,1,2.05-.668,3.443,3.443,0,0,1,3.471,3.419h0v.026h0Z" transform="translate(-700.282 -207.174)"/><path class="a" d="M985.07,314.231a4.785,4.785,0,1,1,4.785,4.78h0a4.78,4.78,0,0,1-4.785-4.77Zm8.146,0a3.361,3.361,0,1,0-3.361,3.359,3.361,3.361,0,0,0,3.361-3.359Z" transform="translate(-727.198 -228.435)"/><path class="a" d="M1041.571,314.221a4.78,4.78,0,0,1-8.144,3.4v6.717H1032v-14.73h1.427v1.2a4.783,4.783,0,0,1,8.144,3.4Zm-1.427,0a3.361,3.361,0,1,0-3.361,3.359h0a3.343,3.343,0,0,0,3.348-3.338h0Z" transform="translate(-761.842 -228.425)"/></svg>